<svg xmlns="http://www.w3.org/2000/svg" xml:space="preserve" fill-rule="evenodd" stroke-linejoin="round" stroke-miterlimit="2" clip-rule="evenodd" viewBox="0 0 500 500">
  <path fill="#000" d="M60.423 121.299h48.349v334.415H60.423z"/>
    <path fill="#000" d="M92.656 121.299h32.233v334.415H92.656z"/>
    <path fill="#000" d="M0 64.662h32.233V121.3H0z"/>
    <path fill="#000" d="M0 44.498h193.369v40.327H0V44.498ZM193.369 196.475l137.906 220.696-6.362 27.559-17.239 10.772-137.906-220.696 6.363-27.559 17.238-10.772Z"/>
    <path fill="#000" d="M161.137 84.825h32.233v370.677h-32.233z"/>
    <path fill="#000" d="M391.228 44.286h48.349v334.415h-48.349z"/>
    <path fill="#000" d="M375.112 44.286h32.233v334.415h-32.233z"/>
    <path fill="#000" d="M467.767 378.701H500v56.638h-32.233z"/>
    <path fill="#000" d="M500 455.502H306.631v-40.327H500v40.327ZM306.631 303.525 168.725 82.829l6.362-27.559 17.239-10.772 137.906 220.696-6.363 27.559-17.238 10.772Z"/>
    <path fill="#000" d="M306.631 44.498h32.233v370.677h-32.233z"/>
    <style>
    @media (prefers-color-scheme:dark){:root{filter:invert(100%)}}
  </style>
</svg>
